<?xml version="1.0" standalone="no"?>
<!DOCTYPE svg PUBLIC "-//W3C//DTD SVG 20010904//EN"
 "http://www.w3.org/TR/2001/REC-SVG-20010904/DTD/svg10.dtd">
<svg version="1.0" xmlns="http://www.w3.org/2000/svg"
 width="556.000000pt" height="612.000000pt" viewBox="0 0 556.000000 612.000000"
 preserveAspectRatio="xMidYMid meet">
<metadata>
Created by potrace 1.16, written by Peter Selinger 2001-2019
</metadata>
<g transform="translate(0.000000,612.000000) scale(0.100000,-0.100000)"
fill="#000000" stroke="none">
<path d="M2844 5594 c-105 -68 -231 -358 -289 -664 -10 -53 -25 -100 -42 -125
-47 -72 -252 -341 -279 -366 l-27 -24 6 85 c3 47 17 130 32 185 50 191 37 245
-59 245 -28 0 -57 -4 -65 -9 -16 -10 -91 -308 -91 -361 0 -59 27 -133 60 -165
23 -22 41 -29 83 -33 81 -6 105 11 208 151 49 67 99 133 110 147 l20 25 -6
-35 c-25 -154 -13 -396 24 -483 58 -135 225 -156 300 -39 96 151 109 426 27
567 l-24 40 79 15 79 16 22 -35 c13 -19 48 -48 78 -65 111 -62 248 -31 324 73
49 67 53 89 21 97 -23 6 -35 -2 -94 -66 -53 -57 -73 -71 -92 -68 -27 3 -49 41
-56 97 -5 34 -2 38 40 69 74 52 128 131 141 203 19 105 -77 146 -210 89 -91
-39 -175 -162 -190 -276 -7 -59 -4 -57 -98 -73 -70 -13 -126 -14 -126 -3 0 4
11 54 24 112 47 207 75 290 128 377 55 92 97 200 98 251 0 72 -80 95 -156 46z
m-67 -920 c50 -88 68 -281 38 -399 -18 -69 -64 -157 -79 -152 -6 2 -17 21 -24
43 -27 76 2 561 32 551 6 -2 21 -21 33 -43z"/>
<path d="M1865 5536 c-27 -13 -64 -39 -82 -57 -59 -62 -118 -223 -163 -444
-22 -106 -86 -341 -119 -438 -26 -74 -95 -213 -125 -250 l-23 -29 -124 65
c-146 77 -237 107 -323 107 -191 0 -264 -183 -128 -319 110 -110 330 -121 535
-28 55 25 72 28 85 19 86 -60 251 -157 310 -182 257 -109 471 -87 569 59 27
41 31 117 8 161 -14 27 -45 42 -45 22 0 -17 -102 -63 -172 -78 -128 -27 -349
6 -520 78 l-48 20 59 57 c65 63 152 191 201 296 74 158 152 455 200 756 21
134 31 173 50 184 19 12 -10 25 -55 25 -22 0 -62 -11 -90 -24z m-803 -1155
c31 -12 91 -45 133 -72 90 -58 89 -63 -13 -106 -60 -25 -79 -28 -177 -28 -95
0 -116 3 -158 24 -26 12 -59 38 -72 55 -43 57 -29 105 38 137 55 26 168 21
249 -10z"/>
<path d="M2234 5280 c-15 -6 -28 -28 -42 -72 -41 -126 -43 -137 -21 -159 21
-21 87 -26 120 -9 34 19 96 171 85 208 -12 36 -90 53 -142 32z"/>
<path d="M3767 5060 c-20 -16 -77 -135 -77 -162 0 -22 36 -38 86 -38 45 0 59
4 80 25 27 27 74 120 74 147 0 46 -114 66 -163 28z"/>
<path d="M4062 4828 c-30 -15 -37 -49 -17 -88 16 -31 16 -32 -31 -118 -26 -48
-65 -114 -87 -147 -57 -86 -166 -225 -178 -225 -23 0 -8 116 31 242 44 144 47
164 25 195 -27 38 -148 51 -175 18 -20 -24 -71 -249 -72 -317 -1 -110 51 -176
153 -193 92 -16 209 109 349 368 23 42 46 77 50 77 5 0 21 -26 37 -57 26 -54
28 -67 28 -173 -1 -104 -4 -121 -28 -175 -42 -90 -86 -129 -101 -89 -17 44 5
127 45 170 18 19 18 22 4 34 -19 16 -76 7 -109 -17 -84 -62 -73 -206 19 -253
18 -9 56 -15 95 -15 83 1 131 25 199 102 68 76 93 143 95 253 1 116 -25 171
-141 294 -49 52 -94 101 -101 110 -15 18 -56 20 -90 4z"/>
<path d="M2300 3839 c-241 -28 -244 -29 -248 -62 -5 -46 12 -57 89 -57 49 0
69 -4 69 -12 0 -7 -5 -51 -10 -98 -38 -324 -49 -544 -29 -613 12 -45 52 -73
116 -83 51 -7 88 12 104 54 6 15 17 128 24 252 8 124 21 276 30 339 8 63 15
131 15 151 l0 37 97 16 c53 9 101 21 106 26 7 7 8 20 1 38 -9 28 -10 28 -104
30 -52 1 -169 -7 -260 -18z"/>
<path d="M3913 3810 c-53 -11 -99 -35 -107 -56 -12 -32 -46 -433 -52 -626 -7
-212 -2 -242 42 -259 41 -15 170 -15 188 0 13 11 16 36 16 131 0 136 10 300
19 300 3 0 19 -57 34 -128 43 -193 78 -261 156 -309 43 -27 108 -30 157 -7 55
26 60 39 28 72 -31 30 -74 118 -119 240 -15 40 -39 87 -52 103 -14 16 -24 31
-22 33 2 1 22 8 45 14 137 40 217 183 170 307 -52 136 -296 225 -503 185z
m211 -115 c47 -23 70 -68 70 -140 -1 -67 -19 -112 -60 -144 -26 -21 -79 -28
-99 -13 -6 4 -11 71 -12 160 l-2 152 35 0 c20 0 50 -7 68 -15z"/>
<path d="M1772 3779 c-105 -8 -193 -28 -226 -52 -26 -19 -76 -366 -76 -532 1
-246 46 -321 195 -318 60 0 331 53 356 69 14 8 10 48 -7 72 -18 26 -76 29
-194 7 -41 -7 -78 -11 -82 -8 -5 2 -8 49 -8 104 0 115 -5 110 114 129 93 15
106 23 106 65 0 58 -20 68 -118 60 l-84 -7 6 29 c4 15 8 80 11 143 l5 115 62
8 c35 4 82 10 105 13 52 6 69 30 51 68 -11 25 -62 48 -98 45 -8 -1 -61 -5
-118 -10z"/>
<path d="M3221 3777 l-35 -12 -42 -255 c-47 -282 -64 -493 -45 -552 16 -48 58
-65 198 -78 150 -14 352 -15 366 -1 16 16 12 70 -6 88 -11 12 -53 20 -149 29
-73 7 -142 13 -152 13 -18 1 -19 7 -13 89 4 48 12 104 17 125 l11 37 127 -2
127 -3 0 49 c0 47 -2 50 -30 58 -16 4 -70 11 -119 15 l-88 6 5 36 c3 20 9 65
12 101 3 36 8 80 11 98 l5 32 128 -2 c97 -2 132 0 144 11 20 16 23 84 5 98
-12 9 -325 34 -408 32 -19 0 -50 -5 -69 -12z"/>
<path d="M2930 3739 c-221 -23 -348 -39 -362 -44 -23 -9 -30 -33 -18 -56 9
-16 22 -19 86 -19 67 0 75 -2 70 -17 -9 -34 -37 -228 -51 -362 -18 -163 -18
-283 -2 -331 24 -70 143 -96 197 -42 32 32 35 48 50 287 6 88 15 196 20 240 5
44 12 119 15 166 l7 85 74 11 c78 11 104 24 104 52 0 42 -27 46 -190 30z"/>
<path d="M972 3669 c-74 -13 -148 -46 -176 -79 -20 -24 -25 -48 -40 -211 -39
-407 -34 -518 28 -583 124 -132 490 -8 587 198 36 75 45 136 30 188 -23 77
-122 157 -193 158 -35 0 -35 7 3 69 60 97 44 208 -37 246 -42 20 -135 26 -202
14z m98 -89 c33 -33 27 -95 -16 -166 -61 -103 -64 -102 -64 11 0 70 -5 109
-15 129 -13 24 -13 31 -3 38 24 15 78 8 98 -12z m100 -350 c25 -13 43 -80 34
-128 -12 -66 -53 -139 -106 -187 -52 -46 -92 -65 -109 -48 -13 13 -22 208 -12
277 8 58 9 59 53 77 51 20 112 24 140 9z"/>
<path d="M4561 2898 c-71 -141 -253 -222 -561 -248 -202 -18 -642 6 -1280 70
-629 62 -882 65 -1220 14 -200 -30 -381 -103 -507 -204 -139 -112 -278 -316
-290 -426 l-6 -49 45 87 c48 92 124 195 180 242 98 83 287 188 398 219 162 47
466 72 760 64 217 -6 359 -17 795 -62 888 -90 1236 -85 1467 25 111 52 206
153 238 252 19 60 7 69 -19 16z"/>
<path d="M1706 2595 c-14 -14 -31 -64 -57 -168 -6 -26 -15 -50 -20 -53 -4 -2
-28 35 -51 83 -42 85 -44 88 -80 91 -62 5 -82 -24 -97 -138 -7 -52 -14 -96
-15 -98 -2 -2 -21 40 -42 93 l-38 97 -34 -6 c-50 -8 -75 -34 -69 -71 3 -16 27
-78 55 -137 52 -112 83 -145 124 -135 49 13 59 29 73 126 8 52 16 95 18 97 2
3 24 -28 48 -68 41 -67 47 -73 81 -76 62 -5 74 8 112 126 42 132 61 215 53
236 -8 20 -41 21 -61 1z"/>
<path d="M1832 2598 c-14 -18 5 -350 21 -360 7 -5 28 -7 47 -6 35 3 35 3 38
56 l3 52 48 0 c52 0 61 -10 61 -72 0 -17 8 -31 19 -38 30 -15 71 -12 78 6 7
19 -9 350 -18 358 -16 16 -67 17 -82 1 -14 -14 -16 -30 -11 -101 l7 -84 -52 0
c-28 0 -51 1 -52 3 0 1 -4 39 -8 84 -4 45 -14 89 -21 98 -15 18 -64 20 -78 3z"/>
<path d="M2209 2578 c-3 -41 3 -307 8 -325 6 -28 48 -41 159 -49 83 -7 100 -1
88 30 -3 9 -24 18 -52 21 -78 11 -82 13 -82 50 l0 34 58 3 c49 3 57 6 57 23 0
17 -10 21 -62 29 l-63 9 0 36 c0 20 3 46 6 59 6 21 10 22 70 16 55 -6 65 -4
70 10 11 28 -16 43 -99 55 -103 15 -157 14 -158 -1z"/>
<path d="M2530 2384 c0 -102 4 -183 10 -195 13 -23 55 -25 64 -3 3 9 6 55 6
102 l1 87 49 -94 c27 -52 57 -103 68 -114 23 -22 106 -35 116 -18 4 6 10 91
13 189 5 154 3 179 -10 191 -25 20 -51 9 -58 -24 -4 -17 -8 -68 -9 -115 l-2
-85 -51 107 c-68 139 -76 148 -144 148 l-53 0 0 -176z"/>
<path d="M4842 2521 c-18 -60 -88 -160 -166 -236 -127 -126 -312 -221 -525
-272 -251 -59 -798 -35 -1408 63 -202 32 -534 71 -714 84 -285 19 -559 -19
-724 -103 -152 -76 -328 -224 -379 -317 -30 -56 -43 -137 -31 -197 l8 -38 9
55 c14 90 50 150 142 237 88 82 205 159 306 199 121 49 196 62 406 69 244 9
359 -2 989 -95 865 -127 1311 -116 1640 41 123 58 223 130 307 218 84 87 130
166 152 261 16 66 6 92 -12 31z"/>
<path d="M3140 2500 c-11 -7 -15 -26 -13 -74 2 -118 53 -187 146 -202 42 -7
43 -18 5 -47 -24 -18 -28 -18 -79 -3 -57 16 -75 10 -65 -21 13 -40 106 -62
176 -43 86 23 120 84 135 235 10 113 -15 159 -82 148 l-33 -5 0 -97 c0 -112
-5 -125 -40 -108 -38 18 -60 72 -60 144 0 34 -3 64 -7 66 -20 12 -70 16 -83 7z"/>
<path d="M4120 2501 l-35 -6 -6 -135 c-7 -151 -23 -210 -59 -210 -31 0 -40 37
-48 194 l-7 141 -47 3 c-65 4 -71 -10 -66 -157 4 -140 23 -191 90 -234 143
-92 268 51 268 309 0 53 -4 77 -16 88 -16 17 -18 17 -74 7z"/>
<path d="M3622 2480 c-71 -17 -121 -94 -128 -198 -9 -134 45 -212 149 -212 44
0 54 4 87 38 49 49 74 130 68 217 -7 82 -29 122 -81 146 -46 20 -47 20 -95 9z
m58 -96 c25 -65 -4 -235 -42 -242 -41 -8 -49 136 -12 227 18 47 40 53 54 15z"/>
<path d="M1476 1934 c-11 -10 -16 -33 -16 -67 0 -92 -53 -284 -127 -458 l-36
-87 -111 -4 c-106 -3 -114 -5 -183 -42 -136 -72 -228 -201 -267 -373 -33 -148
-12 -307 47 -360 52 -47 154 -57 206 -21 41 29 47 39 181 336 122 271 134 294
126 244 -22 -129 -27 -217 -16 -283 21 -136 74 -216 159 -239 70 -19 99 -2
199 114 l42 48 34 -16 c19 -9 57 -16 85 -16 70 0 98 28 171 170 l59 115 1 -50
c1 -97 53 -165 138 -181 79 -15 152 37 239 170 62 95 61 94 55 38 -6 -64 11
-115 49 -147 25 -20 41 -25 86 -25 69 0 82 13 189 188 43 70 89 143 103 162
62 86 104 140 108 137 2 -3 -12 -41 -32 -86 -39 -89 -75 -216 -75 -266 0 -76
51 -165 112 -196 86 -44 145 -18 283 120 44 45 83 81 86 81 4 0 13 -16 19 -36
14 -40 65 -96 111 -120 37 -19 118 -20 151 -3 13 7 92 76 176 153 85 78 157
142 161 144 5 1 14 -12 21 -30 24 -58 69 -106 125 -133 66 -31 158 -42 209
-25 68 22 267 178 297 233 12 22 3 57 -15 57 -7 0 -69 -45 -137 -100 -139
-112 -184 -133 -210 -98 -24 31 -39 87 -39 141 0 43 2 47 28 53 165 36 304
143 337 259 36 123 -23 193 -171 203 -219 14 -393 -140 -428 -381 l-13 -82
-59 -56 c-105 -99 -209 -193 -261 -236 -61 -51 -72 -45 -80 44 -13 156 110
433 218 489 28 14 31 13 54 -10 14 -14 25 -32 25 -41 0 -24 38 -18 56 9 21 34
15 65 -19 90 -25 18 -43 21 -130 21 -97 0 -105 -2 -165 -34 -125 -68 -229
-213 -251 -351 -9 -52 -17 -70 -43 -95 -166 -158 -218 -205 -229 -205 -18 0
-5 100 25 186 13 39 47 124 76 189 74 167 76 216 12 249 -139 72 -263 -18
-457 -332 -32 -51 -59 -91 -61 -89 -2 1 14 48 35 103 59 151 75 230 59 279 -9
29 -22 45 -48 57 -65 33 -180 17 -180 -25 -1 -38 -84 -219 -157 -343 -73 -121
-164 -239 -186 -239 -33 0 -12 113 58 305 15 42 27 98 28 128 1 47 -2 57 -26
78 -31 27 -105 40 -150 28 -23 -7 -33 -17 -39 -43 -7 -25 -13 -31 -26 -26
-105 44 -238 10 -322 -81 -73 -80 -111 -193 -111 -333 l0 -86 -69 -75 c-37
-41 -72 -71 -77 -67 -4 5 -7 59 -7 120 2 167 45 379 145 714 88 292 89 381 6
432 -43 26 -137 29 -161 5z m3034 -393 c14 -27 13 -86 -4 -124 -24 -59 -152
-156 -227 -172 -31 -7 -32 -6 -25 21 16 68 81 181 137 237 62 61 99 74 119 38z
m-3250 -280 c0 -24 -223 -478 -279 -567 -38 -62 -46 -46 -38 76 15 232 120
441 243 485 45 16 74 19 74 6z m773 -25 c32 -30 33 -28 -53 -186 -70 -127
-139 -240 -147 -240 -3 0 -3 28 0 63 15 146 80 324 134 367 32 25 35 25 66 -4z"/>
<path d="M1860 1870 c0 -38 4 -50 15 -50 61 0 503 -47 705 -75 497 -69 775
-90 1064 -82 116 4 245 11 286 17 76 11 188 42 218 60 24 14 12 12 -60 -7 -52
-15 -107 -18 -303 -18 -270 0 -343 8 -1065 115 -353 53 -692 90 -816 90 l-44
0 0 -50z"/>
<path d="M1828 1650 c-9 -28 -12 -52 -7 -56 5 -3 42 -4 81 -2 40 1 224 0 408
-5 191 -4 326 -3 315 2 -35 15 -376 80 -505 96 -68 8 -159 15 -200 15 l-76 0
-16 -50z"/>
</g>
</svg>
