<?xml version="1.0" encoding="iso-8859-1"?>
<!-- Generator: Adobe Illustrator 19.0.0, SVG Export Plug-In . SVG Version: 6.00 Build 0)  -->
<svg version="1.1" id="Layer_1" xmlns="http://www.w3.org/2000/svg" xmlns:xlink="http://www.w3.org/1999/xlink" x="0px" y="0px"
	 viewBox="0 0 496 496" style="enable-background:new 0 0 496 496;" xml:space="preserve">
<g>
	<g>
		<g>
			<path d="M265.504,272h-16c0,61.76-46.656,112-104,112s-104-50.24-104-112h-16c0,67.16,48.768,122.288,110.504,127.488V480H40v16
				h216v-16H152v-80.352C215.144,396.016,265.504,340.24,265.504,272z"/>
			<path d="M318.784,96.432c9.784,1.512,21.504,2.264,33.216,2.264c11.712,0,23.448-0.76,33.216-2.264
				c25.288-3.904,44.056-14.632,61.08-26.016l40.512-31.888L419.88,4.712c-11.112-6.176-27.32-6.224-39.464-0.168L352,18.752
				L323.576,4.544c-12.136-6.072-28.368-5.992-39.184,0.016l-67.2,33.968l41.024,32.256C274.728,81.8,293.496,92.52,318.784,96.432z
				 M291.88,18.688c6.52-3.616,17.08-3.56,24.536,0.16L352,36.64l35.576-17.792c7.44-3.736,18.008-3.792,24.816-0.016L457.2,41.48
				l-20.28,15.984c-20.504,13.672-36.176,20.376-54.136,23.144c-18.128,2.8-43.44,2.8-61.56,0
				c-17.952-2.776-33.632-9.472-53.624-22.784l-20.784-16.36L291.88,18.688z"/>
			<path d="M352,65.488c7.864,0,15.728-0.784,23.536-2.344l18.032-3.608l-3.144-15.688L372.4,47.464
				c-13.528,2.704-27.264,2.704-40.8,0l-18.032-3.608l-3.144,15.688l18.032,3.608C336.272,64.712,344.136,65.488,352,65.488z"/>
			<path d="M48,96c0-0.248-0.064-0.48-0.072-0.72l0.04-0.008L40.76,16H88V0H23.24l6.616,72.808C27.976,72.328,26.032,72,24,72
				C10.768,72,0,82.768,0,96s10.768,24,24,24S48,109.232,48,96z M24,104c-4.416,0-8-3.584-8-8s3.584-8,8-8
				c4.304,0,7.76,3.424,7.936,7.688l0.04,0.432C31.912,100.472,28.376,104,24,104z"/>
			<path d="M400,225.48c-2.512-0.904-5.184-1.48-8-1.48c-13.232,0-24,10.768-24,24s10.768,24,24,24s24-10.768,24-24V126.24l-96,19.2
				v64.032c-2.512-0.896-5.184-1.472-8-1.472c-13.232,0-24,10.768-24,24s10.768,24,24,24s24-10.768,24-24v-41.44l64-12.8V225.48z
				 M392,256c-4.416,0-8-3.584-8-8c0-4.416,3.584-8,8-8c4.416,0,8,3.584,8,8S396.416,256,392,256z M312,240c-4.416,0-8-3.584-8-8
				s3.584-8,8-8c4.416,0,8,3.584,8,8S316.416,240,312,240z M336,174.248V158.56l64-12.8v15.688L336,174.248z"/>
			<path d="M400,354.584v78.888c-2.512-0.896-5.184-1.472-8-1.472c-13.232,0-24,10.768-24,24s10.768,24,24,24s24-10.768,24-24
				v-58.584l64-25.6v29.656c-2.512-0.896-5.184-1.472-8-1.472c-13.232,0-24,10.768-24,24s10.768,24,24,24s24-10.768,24-24V316.184
				L400,354.584z M392,464c-4.416,0-8-3.584-8-8c0-4.416,3.584-8,8-8c4.416,0,8,3.584,8,8C400,460.416,396.416,464,392,464z
				 M472,432c-4.416,0-8-3.584-8-8c0-4.416,3.584-8,8-8c4.416,0,8,3.584,8,8C480,428.416,476.416,432,472,432z M480,354.584
				l-64,25.6v-14.768l64-25.6V354.584z"/>
			<path d="M56,152v128c0,48.52,39.48,88,88,88s88-39.48,88-88V152c0-48.52-39.48-88-88-88S56,103.48,56,152z M144,80
				c34.2,0,62.84,23.984,70.144,56H168v16h48v16h-48v16h48v16h-48v16h48v64c0,39.704-32.296,72-72,72s-72-32.296-72-72v-64h48v-16
				H72v-16h48v-16H72v-16h48v-16H73.856C81.152,103.984,109.8,80,144,80z"/>
		</g>
	</g>
</g>
<g>
</g>
<g>
</g>
<g>
</g>
<g>
</g>
<g>
</g>
<g>
</g>
<g>
</g>
<g>
</g>
<g>
</g>
<g>
</g>
<g>
</g>
<g>
</g>
<g>
</g>
<g>
</g>
<g>
</g>
</svg>
